<svg xmlns="http://www.w3.org/2000/svg" width="440" height="437" viewBox="0 0 440 437" version="1.1"><path d="M 210.500 2.668 C 187.901 4.542, 180.210 5.845, 163.177 10.684 C 129.854 20.152, 96.651 38.769, 73.500 60.967 C 57.332 76.470, 46.708 89.863, 35.159 109.303 C 22.156 131.191, 13.370 156.169, 8.359 185.500 C 5.688 201.131, 5.906 234.781, 8.780 250.600 C 14.726 283.324, 25.109 309.872, 41.619 334.565 C 53.142 351.799, 71.731 372.902, 74.100 371.438 C 74.835 370.984, 75.049 371.111, 74.647 371.762 C 73.709 373.280, 84.578 382.365, 86.208 381.425 C 86.918 381.015, 87.162 381.052, 86.748 381.509 C 86.334 381.965, 86.741 383.162, 87.653 384.169 C 89.444 386.148, 91.551 386.701, 90.438 384.900 C 89.961 384.127, 90.389 384.138, 91.879 384.935 C 93.046 385.560, 94 386.714, 94 387.500 C 94 389.176, 97.411 391.256, 98.452 390.215 C 98.845 389.822, 99.076 389.950, 98.965 390.500 C 98.539 392.611, 99.070 393.437, 99.954 392.040 C 100.746 390.789, 101.170 390.844, 102.915 392.423 C 104.036 393.438, 104.763 394.575, 104.531 394.950 C 104.299 395.326, 105.547 396.474, 107.304 397.503 C 110.172 399.181, 110.354 399.194, 109.082 397.631 C 107.766 396.016, 107.855 395.977, 110.300 397.091 C 111.751 397.752, 112.693 398.688, 112.394 399.171 C 112.096 399.654, 112.222 399.949, 112.676 399.827 C 114.082 399.446, 118.054 401.103, 117.579 401.872 C 117.332 402.272, 118.047 403.173, 119.169 403.874 C 120.753 404.863, 121.037 404.870, 120.441 403.904 C 119.896 403.022, 120.180 402.855, 121.418 403.330 C 122.378 403.699, 123.464 404.007, 123.832 404.015 C 124.199 404.024, 123.825 404.516, 123 405.110 C 121.748 406.010, 121.800 406.091, 123.313 405.601 C 125.289 404.962, 131.048 407.502, 132.248 409.542 C 132.676 410.271, 133.918 410.573, 135.154 410.249 C 136.693 409.847, 137.096 410.036, 136.556 410.909 C 136.045 411.736, 136.401 412.031, 137.650 411.817 C 138.667 411.643, 139.398 412.030, 139.274 412.677 C 139.138 413.390, 140.322 413.839, 142.274 413.814 C 146.329 413.764, 158.147 417.952, 157.393 419.172 C 157.073 419.692, 158.002 419.787, 159.565 419.394 C 161.461 418.918, 162.087 419.050, 161.608 419.825 C 160.822 421.098, 165.295 422.554, 166.915 421.553 C 167.481 421.203, 169.028 421.627, 170.353 422.496 C 171.678 423.364, 174.323 424.214, 176.231 424.386 C 178.139 424.557, 180.243 425.032, 180.907 425.443 C 181.571 425.853, 183.326 425.907, 184.807 425.564 C 186.506 425.170, 187.014 425.264, 186.183 425.820 C 185.318 426.399, 187.288 427.028, 191.933 427.657 C 195.820 428.183, 199 428.251, 199 427.807 C 199 427.363, 200.377 427, 202.059 427 C 203.741 427, 204.879 427.387, 204.587 427.860 C 203.680 429.327, 226.870 430.109, 239.692 429.043 C 253.958 427.857, 281.577 422.142, 293.884 417.831 C 311.652 411.606, 331 402.235, 331 399.855 C 331 399.320, 331.444 399.156, 331.986 399.491 C 332.528 399.827, 335.043 398.841, 337.574 397.300 C 340.106 395.760, 343.374 393.767, 344.838 392.870 C 346.302 391.974, 347.393 390.753, 347.262 390.156 C 347.131 389.560, 347.627 389.303, 348.364 389.586 C 349.101 389.869, 350.465 388.939, 351.396 387.518 C 352.327 386.098, 353.521 385.204, 354.049 385.531 C 355.511 386.434, 368.643 375.436, 379.757 364 C 423.259 319.240, 444.707 255.904, 437.499 193.494 C 435.658 177.549, 434.651 172.409, 430.748 159 C 418.675 117.536, 394.919 80.910, 361.924 52.894 C 356.442 48.239, 336.539 34, 335.515 34 C 335.210 34, 333.096 32.823, 330.818 31.385 C 315.053 21.433, 282.942 9.537, 262.500 6.076 C 259.200 5.517, 255.150 4.835, 253.500 4.561 C 248.339 3.703, 223.718 1.997, 219 2.171 C 216.525 2.262, 212.700 2.485, 210.500 2.668 M 197.500 17.543 C 140.668 25.035, 92.606 52.804, 59.393 97.339 C 22.619 146.647, 10.687 214.664, 28.439 273.771 C 43.083 322.526, 72.082 360.038, 116 387.035 C 133.726 397.931, 159.420 407.883, 182 412.598 C 262.420 429.392, 348.868 393.447, 393.873 324.500 C 415.020 292.104, 426.429 249.330, 424.655 209.097 C 423.870 191.305, 422.840 184.027, 418.914 168.520 C 405.925 117.225, 371.927 71.033, 328.238 45.320 C 301.950 29.849, 275.621 20.960, 246 17.554 C 230.031 15.719, 211.374 15.714, 197.500 17.543 M 207.195 37.265 C 206.618 37.961, 204.231 45.863, 201.892 54.826 L 197.638 71.122 196.025 67.811 C 195.137 65.990, 191.531 58.987, 188.010 52.250 L 181.608 40 177.304 40 C 174.937 40, 173 40.182, 173 40.404 C 173 40.626, 178.012 50.115, 184.139 61.489 L 195.277 82.171 198.889 81.496 C 200.875 81.125, 202.555 80.749, 202.623 80.661 C 202.690 80.572, 205.292 71.275, 208.405 60 C 211.518 48.725, 214.306 38.712, 214.600 37.750 C 215.037 36.318, 214.508 36, 211.690 36 C 209.795 36, 207.772 36.569, 207.195 37.265 M 235.973 38.190 C 235.958 38.360, 234.672 47.950, 233.115 59.500 C 231.559 71.050, 230.350 80.592, 230.430 80.704 C 230.510 80.817, 232.382 81.197, 234.591 81.551 L 238.607 82.193 240.999 63.346 C 244.281 37.485, 244.335 38.569, 239.750 38.190 C 237.688 38.019, 235.988 38.019, 235.973 38.190 M 262.675 63.638 C 258.371 74.424, 255.221 83.611, 255.675 84.054 C 256.129 84.496, 257.659 85.144, 259.076 85.494 C 261.575 86.111, 261.809 85.730, 267.006 72.578 C 269.951 65.125, 272.465 59.134, 272.592 59.264 C 272.719 59.394, 275.086 67.361, 277.851 76.969 C 282.768 94.056, 284.483 97.466, 287.814 96.779 C 288.767 96.583, 305 59.412, 305 57.427 C 305 57.326, 303.608 56.666, 301.908 55.962 C 298.100 54.385, 298.480 53.858, 292.331 69.268 C 289.748 75.740, 287.317 80.690, 286.928 80.268 C 286.539 79.845, 284.122 72.075, 281.556 63 C 278.869 53.495, 276.197 45.970, 275.254 45.250 C 271.508 42.389, 270.657 43.632, 262.675 63.638 M 148.250 48.633 C 146.463 49.388, 145 50.246, 145 50.540 C 145 51, 155.799 80.339, 158.865 88.212 C 159.848 90.736, 160.137 90.848, 163.040 89.836 C 164.756 89.238, 166.353 88.243, 166.590 87.624 C 167.023 86.495, 153.439 49.041, 152.175 47.880 C 151.804 47.539, 150.037 47.878, 148.250 48.633 M 110.641 68.464 C 106.273 70.021, 91.083 80.032, 91.033 81.386 C 91.001 82.237, 112.065 113.193, 114.407 115.737 C 115.294 116.701, 117.556 115.551, 124.665 110.524 C 132.219 105.181, 134.232 103.175, 136.392 98.840 C 137.827 95.962, 138.980 92.008, 138.956 90.054 C 138.850 81.468, 133.396 73.024, 125.617 69.402 C 119.824 66.705, 116.210 66.478, 110.641 68.464 M 109.497 76.492 C 99.670 81.491, 99.666 80.245, 109.552 94.377 L 118.304 106.887 122.576 103.948 C 131.525 97.791, 133.306 91.610, 128.496 83.403 C 123.503 74.882, 117.181 72.583, 109.497 76.492 M 315.547 90.053 C 308.096 98.883, 302 106.497, 302 106.974 C 302 107.451, 306.613 111.687, 312.250 116.387 L 322.500 124.934 324.228 122.717 C 325.178 121.498, 325.966 120.189, 325.978 119.809 C 325.990 119.429, 322.872 116.545, 319.050 113.401 C 311.466 107.162, 311.500 107.348, 316.792 101.277 L 319.601 98.053 325.550 102.982 L 331.500 107.911 333.228 105.706 C 334.178 104.492, 334.966 103.230, 334.978 102.899 C 334.990 102.569, 332.525 100.324, 329.500 97.910 C 326.475 95.496, 324.019 93.292, 324.043 93.011 C 324.066 92.730, 325.754 90.607, 327.793 88.293 L 331.500 84.087 338.793 90.159 C 345.861 96.043, 346.148 96.176, 348.043 94.461 C 349.120 93.487, 350 92.357, 350 91.949 C 350 91.168, 330.498 74, 329.611 74 C 329.327 74, 322.998 81.224, 315.547 90.053 M 219.975 98.530 C 219.005 99.699, 218.971 100.641, 219.832 102.530 C 221.240 105.620, 225.450 105.897, 227 103 C 229.359 98.592, 223.185 94.663, 219.975 98.530 M 194.032 100.940 C 192.386 104.016, 194.391 107.209, 197.716 106.810 C 201.065 106.408, 202.893 103.644, 201.394 101.250 C 199.750 98.624, 195.370 98.440, 194.032 100.940 M 246.011 101.487 C 245.290 102.356, 245.045 104.044, 245.423 105.548 C 245.973 107.740, 246.546 108.076, 249.284 107.811 C 251.766 107.571, 252.575 106.974, 252.827 105.195 C 253.451 100.793, 248.722 98.221, 246.011 101.487 M 169.667 107.667 C 168.424 108.909, 168.992 113.748, 170.530 115.025 C 171.699 115.995, 172.641 116.029, 174.530 115.168 C 177.178 113.962, 177.623 112.032, 175.965 108.934 C 174.969 107.074, 171.048 106.285, 169.667 107.667 M 271.200 110.200 C 268.510 112.890, 270.604 117, 274.665 117 C 277.628 117, 279.454 113.716, 278 111 C 276.813 108.782, 273.059 108.341, 271.200 110.200 M 294.642 124.180 C 292.326 125.476, 292.571 129.700, 295.038 131.020 C 299.053 133.169, 303.059 129.847, 301.028 126.052 C 299.840 123.833, 296.837 122.952, 294.642 124.180 M 124 128.130 C 124 128.477, 127.150 132.405, 131 136.861 L 138 144.961 138 235.836 L 138 326.711 131.874 333.396 C 128.505 337.073, 125.917 340.178, 126.124 340.295 C 126.331 340.413, 153.275 340.247, 186 339.927 C 243.967 339.360, 245.693 339.287, 253 337.092 C 287.680 326.678, 312.822 298.380, 320.606 261 C 327.831 226.308, 322.493 194.423, 305.159 168.735 C 295.733 154.766, 283.996 144.547, 268.321 136.659 C 258.302 131.617, 248.556 129.134, 234 127.913 C 220.894 126.815, 124.001 127.005, 124 128.130 M 314.571 145.571 C 312.488 147.655, 312.589 149.318, 314.928 151.435 C 318.921 155.049, 324.049 149.921, 320.435 145.928 C 318.318 143.589, 316.655 143.488, 314.571 145.571 M 397.153 155.247 C 395.582 156.818, 395.705 158.511, 397.500 160 C 398.697 160.993, 399.303 160.993, 400.500 160 C 402.532 158.314, 402.388 156.278, 400.153 155.082 C 398.883 154.402, 397.947 154.453, 397.153 155.247 M 43.530 155.952 C 42.256 158.013, 44.059 161.133, 46.336 160.808 C 49.390 160.373, 49.397 155.628, 46.344 155.193 C 45.159 155.024, 43.892 155.365, 43.530 155.952 M 176.244 233.250 L 176.500 308.500 203.500 308.477 C 228.426 308.457, 231.038 308.287, 237.500 306.269 C 258.242 299.793, 273.312 283.245, 280.218 259.362 C 282.217 252.448, 282.491 249.268, 282.491 233 C 282.491 216.690, 282.220 213.562, 280.200 206.573 C 274.418 186.567, 263.431 172.514, 246.934 164.022 C 237.353 159.090, 229.042 158, 201.036 158 L 175.987 158 176.244 233.250 M 54.570 163.887 C 53.740 165.230, 55.244 166.149, 71.864 174.452 C 80.763 178.897, 87.886 181.874, 88.791 181.527 C 91.289 180.568, 89.004 179.005, 72.839 170.612 C 58.442 163.137, 55.665 162.115, 54.570 163.887 M 371.221 171.176 C 357.268 178.616, 354.166 181.106, 358.083 181.723 C 359.955 182.019, 390.497 165.791, 390.499 164.500 C 390.502 161.877, 385.250 163.696, 371.221 171.176 M 111.407 169.513 C 111.046 170.954, 111.303 172.660, 112.011 173.513 C 113.782 175.647, 117.739 175.357, 119 173 C 120.619 169.975, 118.627 167, 114.984 167 C 112.672 167, 111.902 167.540, 111.407 169.513 M 329.409 168.378 C 328.533 170.659, 329.299 173.159, 331.250 174.388 C 333.815 176.003, 336.500 173.959, 336.500 170.391 C 336.500 167.859, 336.096 167.461, 333.243 167.186 C 331.047 166.974, 329.798 167.363, 329.409 168.378 M 35.362 183.500 C 34.569 185.564, 35.644 188, 37.346 188 C 38.121 188, 39.315 187.325, 40 186.500 C 40.993 185.303, 40.993 184.697, 40 183.500 C 39.315 182.675, 38.121 182, 37.346 182 C 36.571 182, 35.678 182.675, 35.362 183.500 M 404.590 183.627 C 403.865 185.514, 405.607 188, 407.654 188 C 409.645 188, 410.457 185.256, 408.989 183.487 C 407.367 181.533, 405.369 181.596, 404.590 183.627 M 47.500 189 C 46.359 190.846, 47.859 191.641, 55.981 193.496 C 62.308 194.941, 64.322 195.078, 65.271 194.129 C 66.717 192.683, 64.741 191.047, 61.500 191.004 C 60.400 190.990, 57.291 190.308, 54.591 189.489 C 48.781 187.727, 48.307 187.694, 47.500 189 M 106.667 188.667 C 104.554 190.780, 107.576 194.998, 110.090 193.444 C 111.578 192.525, 111.124 189.262, 109.418 188.607 C 107.460 187.855, 107.478 187.855, 106.667 188.667 M 339.941 189.571 C 338.906 190.818, 338.947 191.375, 340.158 192.587 C 341.836 194.265, 345 193.508, 345 191.428 C 345 189.120, 341.409 187.802, 339.941 189.571 M 390 189.500 C 388.075 190.241, 385.543 190.882, 384.372 190.924 C 383.202 190.966, 381.689 191.670, 381.010 192.488 C 378.906 195.024, 382.242 195.349, 390.465 193.411 C 396.429 192.005, 398 191.255, 398 189.817 C 398 187.638, 395.131 187.524, 390 189.500 M 220.162 202.422 C 217.387 217.487, 210.067 225.432, 195.187 229.530 C 192.609 230.240, 191.331 230.861, 192.346 230.911 C 197.529 231.162, 205.182 234.408, 209.452 238.167 C 215.214 243.239, 217.659 247.952, 219.925 258.360 L 221.698 266.500 222.437 262 C 224.428 249.888, 228.356 241.618, 234.340 236.935 C 235.902 235.713, 240.402 233.726, 244.340 232.520 L 251.500 230.328 247.571 229.585 C 241.307 228.401, 235.396 225.153, 231.181 220.580 C 227.388 216.466, 223.103 207.220, 222.900 202.712 C 222.845 201.496, 222.491 199.390, 222.113 198.033 C 221.568 196.076, 221.165 196.982, 220.162 202.422 M 62.334 204.005 C 46.610 206.306, 29.276 216.064, 31.343 221.452 C 31.865 222.813, 32.718 222.539, 36.879 219.677 C 43.402 215.190, 53.307 211.311, 61.688 209.961 C 65.434 209.358, 79.049 208.885, 91.942 208.910 C 112.689 208.951, 115.214 208.785, 113.898 207.469 C 110.171 203.742, 78.620 201.623, 62.334 204.005 M 346.209 204.439 C 342.199 205.200, 338.190 206.425, 337.301 207.162 C 335.938 208.290, 339.595 208.591, 360.592 209.077 C 382.660 209.589, 386.272 209.908, 392.273 211.875 C 399.503 214.245, 404.763 216.963, 409.327 220.691 C 412.893 223.604, 414 223.603, 414 220.687 C 414 216.253, 405.984 210.677, 393.500 206.426 C 386.352 203.992, 383.797 203.668, 369.500 203.379 C 358.771 203.162, 351.098 203.512, 346.209 204.439 M 57.764 224.033 C 46.980 225.849, 31.802 235.436, 33.345 239.457 C 33.861 240.800, 34.587 240.587, 38.050 238.079 C 47.439 231.277, 51.471 230.893, 96.740 232.481 C 120.925 233.329, 122 233.142, 122 228.078 C 122 223.046, 121.663 222.992, 91.050 223.118 C 75.348 223.182, 60.369 223.594, 57.764 224.033 M 338.200 224.200 C 336.464 225.936, 336.727 230.529, 338.655 232.128 C 340.626 233.761, 354.571 233.652, 371.338 231.872 C 389.834 229.908, 400.997 232.074, 408.574 239.096 C 409.715 240.153, 410.952 240.714, 411.324 240.342 C 413.005 238.662, 411.635 236.136, 407.250 232.828 C 395.927 224.289, 390.072 223.034, 361.450 223.015 C 345.616 223.004, 339.062 223.338, 338.200 224.200 M 51 244.601 C 43.234 246.676, 35 252.290, 35 255.510 C 35 258.484, 36.079 258.675, 38.398 256.113 C 39.337 255.075, 42.894 252.957, 46.303 251.406 C 51.778 248.914, 53.665 248.586, 62.500 248.584 C 69.079 248.583, 75.986 249.338, 82.692 250.791 C 95.541 253.576, 102.093 253.618, 107.603 250.950 C 116.080 246.846, 115.249 246.106, 102.807 246.681 C 93.993 247.088, 88.830 246.740, 79.389 245.102 C 65.368 242.669, 58.675 242.551, 51 244.601 M 367 245.090 C 359.464 246.528, 353.747 246.982, 346.750 246.699 C 341.387 246.482, 337 246.454, 337 246.638 C 337 246.821, 338.808 248.168, 341.017 249.630 C 346.208 253.065, 354.007 253.171, 369.980 250.025 C 382.919 247.476, 389.443 247.697, 398.226 250.984 C 401.221 252.104, 404.723 254.141, 406.010 255.510 C 408.940 258.629, 410 258.658, 410 255.619 C 410 254.058, 408.754 252.287, 406.382 250.478 C 397.240 243.505, 384.471 241.758, 367 245.090 M 63.112 261.149 C 57.953 262.082, 57.170 262.602, 59.709 263.408 C 61.984 264.130, 71.151 261.638, 69 260.882 C 68.175 260.592, 65.525 260.712, 63.112 261.149 M 86 272.453 C 84.075 273.167, 76.650 275.886, 69.500 278.494 C 62.350 281.103, 55.942 283.685, 55.261 284.232 C 53.712 285.476, 54.568 287.002, 56.809 286.993 C 58.865 286.984, 89.114 275.238, 90.450 273.930 C 92.362 272.058, 89.568 271.130, 86 272.453 M 356.580 272.870 C 355.732 274.243, 359.435 276.085, 375.044 282.054 C 388.434 287.174, 392 287.936, 392 285.677 C 392 284.880, 385.737 282.058, 376.250 278.581 C 356.737 271.428, 357.360 271.609, 356.580 272.870 M 107 284.403 C 107 285.366, 105.630 287.524, 103.955 289.199 C 102.280 290.873, 101.043 292.336, 101.205 292.449 C 101.367 292.562, 102.920 293.219, 104.655 293.909 C 106.390 294.599, 108.036 296.028, 108.312 297.084 C 109.027 299.818, 113.377 298.117, 113.849 294.919 C 114.040 293.620, 114.828 291.656, 115.599 290.556 C 117.604 287.692, 117.354 287, 114.314 287 C 112.837 287, 110.587 286.022, 109.314 284.826 C 107.271 282.906, 107 282.856, 107 284.403 M 335.667 284.816 C 334.669 285.918, 332.720 287.104, 331.335 287.452 C 329.403 287.937, 329.001 288.481, 329.605 289.792 C 330.038 290.731, 330.382 292.962, 330.371 294.750 C 330.353 297.457, 330.725 298, 332.593 298 C 333.827 298, 335.548 298.273, 336.418 298.607 C 337.465 299.008, 338 298.659, 338 297.573 C 338 296.671, 339.625 294.974, 341.611 293.802 L 345.221 291.672 342.598 290.297 C 341.155 289.541, 339.413 287.548, 338.727 285.867 C 337.490 282.835, 337.467 282.827, 335.667 284.816 M 72.681 303.103 C 61.804 310.234, 59.586 312.508, 62.034 314.021 C 62.897 314.554, 64.778 313.696, 67.429 311.559 C 69.668 309.754, 74.763 306.150, 78.750 303.549 C 85.356 299.239, 87.940 295.991, 84.750 296.006 C 84.063 296.009, 78.632 299.203, 72.681 303.103 M 360 297.316 C 360 298.040, 363.488 301.032, 367.750 303.965 C 372.012 306.898, 376.963 310.670, 378.752 312.347 C 381.319 314.754, 382.262 315.138, 383.229 314.171 C 385.200 312.200, 383.185 310.087, 372.408 302.818 C 362.306 296.005, 360 294.983, 360 297.316 M 99.612 359.531 C 96.865 362.278, 100.636 366.377, 103.627 363.895 C 105.565 362.286, 105.331 360.248, 103.069 359.037 C 101.619 358.261, 100.759 358.384, 99.612 359.531 M 341 361.417 C 341 362.746, 341.563 364.030, 342.250 364.269 C 344.454 365.038, 346 363.853, 346 361.393 C 346 359.507, 345.470 359, 343.500 359 C 341.523 359, 341 359.506, 341 361.417" stroke="none" fill="#f4c37a" fill-rule="evenodd"/><path d="M 210.269 2.693 C 211.242 2.947, 212.592 2.930, 213.269 2.656 C 213.946 2.382, 213.150 2.175, 211.500 2.195 C 209.850 2.215, 209.296 2.439, 210.269 2.693 M 230.750 2.706 C 231.988 2.944, 234.012 2.944, 235.250 2.706 C 236.488 2.467, 235.475 2.272, 233 2.272 C 230.525 2.272, 229.512 2.467, 230.750 2.706 M 197.500 17.543 C 140.668 25.035, 92.606 52.804, 59.393 97.339 C 22.619 146.647, 10.687 214.664, 28.439 273.771 C 43.083 322.526, 72.082 360.038, 116 387.035 C 133.726 397.931, 159.420 407.883, 182 412.598 C 262.420 429.392, 348.868 393.447, 393.873 324.500 C 415.020 292.104, 426.429 249.330, 424.655 209.097 C 423.870 191.305, 422.840 184.027, 418.914 168.520 C 405.925 117.225, 371.927 71.033, 328.238 45.320 C 301.950 29.849, 275.621 20.960, 246 17.554 C 230.031 15.719, 211.374 15.714, 197.500 17.543 M 207.195 37.265 C 206.618 37.961, 204.231 45.863, 201.892 54.826 L 197.638 71.122 196.025 67.811 C 195.137 65.990, 191.531 58.987, 188.010 52.250 L 181.608 40 177.304 40 C 174.937 40, 173 40.182, 173 40.404 C 173 40.626, 178.012 50.115, 184.139 61.489 L 195.277 82.171 198.889 81.496 C 200.875 81.125, 202.555 80.749, 202.623 80.661 C 202.690 80.572, 205.292 71.275, 208.405 60 C 211.518 48.725, 214.306 38.712, 214.600 37.750 C 215.037 36.318, 214.508 36, 211.690 36 C 209.795 36, 207.772 36.569, 207.195 37.265 M 235.973 38.190 C 235.958 38.360, 234.672 47.950, 233.115 59.500 C 231.559 71.050, 230.350 80.592, 230.430 80.704 C 230.510 80.817, 232.382 81.197, 234.591 81.551 L 238.607 82.193 240.999 63.346 C 244.281 37.485, 244.335 38.569, 239.750 38.190 C 237.688 38.019, 235.988 38.019, 235.973 38.190 M 262.675 63.638 C 258.371 74.424, 255.221 83.611, 255.675 84.054 C 256.129 84.496, 257.659 85.144, 259.076 85.494 C 261.575 86.111, 261.809 85.730, 267.006 72.578 C 269.951 65.125, 272.465 59.134, 272.592 59.264 C 272.719 59.394, 275.086 67.361, 277.851 76.969 C 282.768 94.056, 284.483 97.466, 287.814 96.779 C 288.767 96.583, 305 59.412, 305 57.427 C 305 57.326, 303.608 56.666, 301.908 55.962 C 298.100 54.385, 298.480 53.858, 292.331 69.268 C 289.748 75.740, 287.317 80.690, 286.928 80.268 C 286.539 79.845, 284.122 72.075, 281.556 63 C 278.869 53.495, 276.197 45.970, 275.254 45.250 C 271.508 42.389, 270.657 43.632, 262.675 63.638 M 148.250 48.633 C 146.463 49.388, 145 50.246, 145 50.540 C 145 51, 155.799 80.339, 158.865 88.212 C 159.848 90.736, 160.137 90.848, 163.040 89.836 C 164.756 89.238, 166.353 88.243, 166.590 87.624 C 167.023 86.495, 153.439 49.041, 152.175 47.880 C 151.804 47.539, 150.037 47.878, 148.250 48.633 M 70.946 62.750 L 67.500 66.500 71.250 63.054 C 73.313 61.158, 75 59.471, 75 59.304 C 75 58.540, 74.154 59.260, 70.946 62.750 M 110.641 68.464 C 106.273 70.021, 91.083 80.032, 91.033 81.386 C 91.001 82.237, 112.065 113.193, 114.407 115.737 C 115.294 116.701, 117.556 115.551, 124.665 110.524 C 132.219 105.181, 134.232 103.175, 136.392 98.840 C 137.827 95.962, 138.980 92.008, 138.956 90.054 C 138.850 81.468, 133.396 73.024, 125.617 69.402 C 119.824 66.705, 116.210 66.478, 110.641 68.464 M 109.497 76.492 C 99.670 81.491, 99.666 80.245, 109.552 94.377 L 118.304 106.887 122.576 103.948 C 131.525 97.791, 133.306 91.610, 128.496 83.403 C 123.503 74.882, 117.181 72.583, 109.497 76.492 M 315.547 90.053 C 308.096 98.883, 302 106.497, 302 106.974 C 302 107.451, 306.613 111.687, 312.250 116.387 L 322.500 124.934 324.228 122.717 C 325.178 121.498, 325.966 120.189, 325.978 119.809 C 325.990 119.429, 322.872 116.545, 319.050 113.401 C 311.466 107.162, 311.500 107.348, 316.792 101.277 L 319.601 98.053 325.550 102.982 L 331.500 107.911 333.228 105.706 C 334.178 104.492, 334.966 103.230, 334.978 102.899 C 334.990 102.569, 332.525 100.324, 329.500 97.910 C 326.475 95.496, 324.019 93.292, 324.043 93.011 C 324.066 92.730, 325.754 90.607, 327.793 88.293 L 331.500 84.087 338.793 90.159 C 345.861 96.043, 346.148 96.176, 348.043 94.461 C 349.120 93.487, 350 92.357, 350 91.949 C 350 91.168, 330.498 74, 329.611 74 C 329.327 74, 322.998 81.224, 315.547 90.053 M 219.975 98.530 C 219.005 99.699, 218.971 100.641, 219.832 102.530 C 221.240 105.620, 225.450 105.897, 227 103 C 229.359 98.592, 223.185 94.663, 219.975 98.530 M 194.032 100.940 C 192.386 104.016, 194.391 107.209, 197.716 106.810 C 201.065 106.408, 202.893 103.644, 201.394 101.250 C 199.750 98.624, 195.370 98.440, 194.032 100.940 M 246.011 101.487 C 245.290 102.356, 245.045 104.044, 245.423 105.548 C 245.973 107.740, 246.546 108.076, 249.284 107.811 C 251.766 107.571, 252.575 106.974, 252.827 105.195 C 253.451 100.793, 248.722 98.221, 246.011 101.487 M 169.667 107.667 C 168.424 108.909, 168.992 113.748, 170.530 115.025 C 171.699 115.995, 172.641 116.029, 174.530 115.168 C 177.178 113.962, 177.623 112.032, 175.965 108.934 C 174.969 107.074, 171.048 106.285, 169.667 107.667 M 271.200 110.200 C 268.510 112.890, 270.604 117, 274.665 117 C 277.628 117, 279.454 113.716, 278 111 C 276.813 108.782, 273.059 108.341, 271.200 110.200 M 294.642 124.180 C 292.326 125.476, 292.571 129.700, 295.038 131.020 C 299.053 133.169, 303.059 129.847, 301.028 126.052 C 299.840 123.833, 296.837 122.952, 294.642 124.180 M 124 128.130 C 124 128.477, 127.150 132.405, 131 136.861 L 138 144.961 138 235.836 L 138 326.711 131.874 333.396 C 128.505 337.073, 125.917 340.178, 126.124 340.295 C 126.331 340.413, 153.275 340.247, 186 339.927 C 243.967 339.360, 245.693 339.287, 253 337.092 C 287.680 326.678, 312.822 298.380, 320.606 261 C 327.831 226.308, 322.493 194.423, 305.159 168.735 C 295.733 154.766, 283.996 144.547, 268.321 136.659 C 258.302 131.617, 248.556 129.134, 234 127.913 C 220.894 126.815, 124.001 127.005, 124 128.130 M 314.571 145.571 C 312.488 147.655, 312.589 149.318, 314.928 151.435 C 318.921 155.049, 324.049 149.921, 320.435 145.928 C 318.318 143.589, 316.655 143.488, 314.571 145.571 M 397.153 155.247 C 395.582 156.818, 395.705 158.511, 397.500 160 C 398.697 160.993, 399.303 160.993, 400.500 160 C 402.532 158.314, 402.388 156.278, 400.153 155.082 C 398.883 154.402, 397.947 154.453, 397.153 155.247 M 43.530 155.952 C 42.256 158.013, 44.059 161.133, 46.336 160.808 C 49.390 160.373, 49.397 155.628, 46.344 155.193 C 45.159 155.024, 43.892 155.365, 43.530 155.952 M 176.244 233.250 L 176.500 308.500 203.500 308.477 C 228.426 308.457, 231.038 308.287, 237.500 306.269 C 258.242 299.793, 273.312 283.245, 280.218 259.362 C 282.217 252.448, 282.491 249.268, 282.491 233 C 282.491 216.690, 282.220 213.562, 280.200 206.573 C 274.418 186.567, 263.431 172.514, 246.934 164.022 C 237.353 159.090, 229.042 158, 201.036 158 L 175.987 158 176.244 233.250 M 54.570 163.887 C 53.740 165.230, 55.244 166.149, 71.864 174.452 C 80.763 178.897, 87.886 181.874, 88.791 181.527 C 91.289 180.568, 89.004 179.005, 72.839 170.612 C 58.442 163.137, 55.665 162.115, 54.570 163.887 M 371.221 171.176 C 357.268 178.616, 354.166 181.106, 358.083 181.723 C 359.955 182.019, 390.497 165.791, 390.499 164.500 C 390.502 161.877, 385.250 163.696, 371.221 171.176 M 111.407 169.513 C 111.046 170.954, 111.303 172.660, 112.011 173.513 C 113.782 175.647, 117.739 175.357, 119 173 C 120.619 169.975, 118.627 167, 114.984 167 C 112.672 167, 111.902 167.540, 111.407 169.513 M 329.409 168.378 C 328.533 170.659, 329.299 173.159, 331.250 174.388 C 333.815 176.003, 336.500 173.959, 336.500 170.391 C 336.500 167.859, 336.096 167.461, 333.243 167.186 C 331.047 166.974, 329.798 167.363, 329.409 168.378 M 35.362 183.500 C 34.569 185.564, 35.644 188, 37.346 188 C 38.121 188, 39.315 187.325, 40 186.500 C 40.993 185.303, 40.993 184.697, 40 183.500 C 39.315 182.675, 38.121 182, 37.346 182 C 36.571 182, 35.678 182.675, 35.362 183.500 M 404.590 183.627 C 403.865 185.514, 405.607 188, 407.654 188 C 409.645 188, 410.457 185.256, 408.989 183.487 C 407.367 181.533, 405.369 181.596, 404.590 183.627 M 47.500 189 C 46.359 190.846, 47.859 191.641, 55.981 193.496 C 62.308 194.941, 64.322 195.078, 65.271 194.129 C 66.717 192.683, 64.741 191.047, 61.500 191.004 C 60.400 190.990, 57.291 190.308, 54.591 189.489 C 48.781 187.727, 48.307 187.694, 47.500 189 M 106.667 188.667 C 104.554 190.780, 107.576 194.998, 110.090 193.444 C 111.578 192.525, 111.124 189.262, 109.418 188.607 C 107.460 187.855, 107.478 187.855, 106.667 188.667 M 339.941 189.571 C 338.906 190.818, 338.947 191.375, 340.158 192.587 C 341.836 194.265, 345 193.508, 345 191.428 C 345 189.120, 341.409 187.802, 339.941 189.571 M 390 189.500 C 388.075 190.241, 385.543 190.882, 384.372 190.924 C 383.202 190.966, 381.689 191.670, 381.010 192.488 C 378.906 195.024, 382.242 195.349, 390.465 193.411 C 396.429 192.005, 398 191.255, 398 189.817 C 398 187.638, 395.131 187.524, 390 189.500 M 220.162 202.422 C 217.387 217.487, 210.067 225.432, 195.187 229.530 C 192.609 230.240, 191.331 230.861, 192.346 230.911 C 197.529 231.162, 205.182 234.408, 209.452 238.167 C 215.214 243.239, 217.659 247.952, 219.925 258.360 L 221.698 266.500 222.437 262 C 224.428 249.888, 228.356 241.618, 234.340 236.935 C 235.902 235.713, 240.402 233.726, 244.340 232.520 L 251.500 230.328 247.571 229.585 C 241.307 228.401, 235.396 225.153, 231.181 220.580 C 227.388 216.466, 223.103 207.220, 222.900 202.712 C 222.845 201.496, 222.491 199.390, 222.113 198.033 C 221.568 196.076, 221.165 196.982, 220.162 202.422 M 438.252 199.500 C 438.263 201.700, 438.468 202.482, 438.707 201.238 C 438.946 199.994, 438.937 198.194, 438.687 197.238 C 438.437 196.282, 438.241 197.300, 438.252 199.500 M 6.232 201 C 6.232 202.925, 6.438 203.713, 6.689 202.750 C 6.941 201.787, 6.941 200.213, 6.689 199.250 C 6.438 198.287, 6.232 199.075, 6.232 201 M 62.334 204.005 C 46.610 206.306, 29.276 216.064, 31.343 221.452 C 31.865 222.813, 32.718 222.539, 36.879 219.677 C 43.402 215.190, 53.307 211.311, 61.688 209.961 C 65.434 209.358, 79.049 208.885, 91.942 208.910 C 112.689 208.951, 115.214 208.785, 113.898 207.469 C 110.171 203.742, 78.620 201.623, 62.334 204.005 M 346.209 204.439 C 342.199 205.200, 338.190 206.425, 337.301 207.162 C 335.938 208.290, 339.595 208.591, 360.592 209.077 C 382.660 209.589, 386.272 209.908, 392.273 211.875 C 399.503 214.245, 404.763 216.963, 409.327 220.691 C 412.893 223.604, 414 223.603, 414 220.687 C 414 216.253, 405.984 210.677, 393.500 206.426 C 386.352 203.992, 383.797 203.668, 369.500 203.379 C 358.771 203.162, 351.098 203.512, 346.209 204.439 M 5.310 218.500 C 5.315 221.800, 5.502 223.029, 5.725 221.232 C 5.947 219.435, 5.943 216.735, 5.715 215.232 C 5.486 213.729, 5.304 215.200, 5.310 218.500 M 439.272 218 C 439.272 220.475, 439.467 221.488, 439.706 220.250 C 439.944 219.012, 439.944 216.988, 439.706 215.750 C 439.467 214.512, 439.272 215.525, 439.272 218 M 57.764 224.033 C 46.980 225.849, 31.802 235.436, 33.345 239.457 C 33.861 240.800, 34.587 240.587, 38.050 238.079 C 47.439 231.277, 51.471 230.893, 96.740 232.481 C 120.925 233.329, 122 233.142, 122 228.078 C 122 223.046, 121.663 222.992, 91.050 223.118 C 75.348 223.182, 60.369 223.594, 57.764 224.033 M 338.200 224.200 C 336.464 225.936, 336.727 230.529, 338.655 232.128 C 340.626 233.761, 354.571 233.652, 371.338 231.872 C 389.834 229.908, 400.997 232.074, 408.574 239.096 C 409.715 240.153, 410.952 240.714, 411.324 240.342 C 413.005 238.662, 411.635 236.136, 407.250 232.828 C 395.927 224.289, 390.072 223.034, 361.450 223.015 C 345.616 223.004, 339.062 223.338, 338.200 224.200 M 6.252 234.500 C 6.263 236.700, 6.468 237.482, 6.707 236.238 C 6.946 234.994, 6.937 233.194, 6.687 232.238 C 6.437 231.282, 6.241 232.300, 6.252 234.500 M 438.232 235 C 438.232 236.925, 438.438 237.713, 438.689 236.750 C 438.941 235.787, 438.941 234.213, 438.689 233.250 C 438.438 232.287, 438.232 233.075, 438.232 235 M 51 244.601 C 43.234 246.676, 35 252.290, 35 255.510 C 35 258.484, 36.079 258.675, 38.398 256.113 C 39.337 255.075, 42.894 252.957, 46.303 251.406 C 51.778 248.914, 53.665 248.586, 62.500 248.584 C 69.079 248.583, 75.986 249.338, 82.692 250.791 C 95.541 253.576, 102.093 253.618, 107.603 250.950 C 116.080 246.846, 115.249 246.106, 102.807 246.681 C 93.993 247.088, 88.830 246.740, 79.389 245.102 C 65.368 242.669, 58.675 242.551, 51 244.601 M 367 245.090 C 359.464 246.528, 353.747 246.982, 346.750 246.699 C 341.387 246.482, 337 246.454, 337 246.638 C 337 246.821, 338.808 248.168, 341.017 249.630 C 346.208 253.065, 354.007 253.171, 369.980 250.025 C 382.919 247.476, 389.443 247.697, 398.226 250.984 C 401.221 252.104, 404.723 254.141, 406.010 255.510 C 408.940 258.629, 410 258.658, 410 255.619 C 410 254.058, 408.754 252.287, 406.382 250.478 C 397.240 243.505, 384.471 241.758, 367 245.090 M 63.112 261.149 C 57.953 262.082, 57.170 262.602, 59.709 263.408 C 61.984 264.130, 71.151 261.638, 69 260.882 C 68.175 260.592, 65.525 260.712, 63.112 261.149 M 86 272.453 C 84.075 273.167, 76.650 275.886, 69.500 278.494 C 62.350 281.103, 55.942 283.685, 55.261 284.232 C 53.712 285.476, 54.568 287.002, 56.809 286.993 C 58.865 286.984, 89.114 275.238, 90.450 273.930 C 92.362 272.058, 89.568 271.130, 86 272.453 M 356.580 272.870 C 355.732 274.243, 359.435 276.085, 375.044 282.054 C 388.434 287.174, 392 287.936, 392 285.677 C 392 284.880, 385.737 282.058, 376.250 278.581 C 356.737 271.428, 357.360 271.609, 356.580 272.870 M 107 284.403 C 107 285.366, 105.630 287.524, 103.955 289.199 C 102.280 290.873, 101.043 292.336, 101.205 292.449 C 101.367 292.562, 102.920 293.219, 104.655 293.909 C 106.390 294.599, 108.036 296.028, 108.312 297.084 C 109.027 299.818, 113.377 298.117, 113.849 294.919 C 114.040 293.620, 114.828 291.656, 115.599 290.556 C 117.604 287.692, 117.354 287, 114.314 287 C 112.837 287, 110.587 286.022, 109.314 284.826 C 107.271 282.906, 107 282.856, 107 284.403 M 335.667 284.816 C 334.669 285.918, 332.720 287.104, 331.335 287.452 C 329.403 287.937, 329.001 288.481, 329.605 289.792 C 330.038 290.731, 330.382 292.962, 330.371 294.750 C 330.353 297.457, 330.725 298, 332.593 298 C 333.827 298, 335.548 298.273, 336.418 298.607 C 337.465 299.008, 338 298.659, 338 297.573 C 338 296.671, 339.625 294.974, 341.611 293.802 L 345.221 291.672 342.598 290.297 C 341.155 289.541, 339.413 287.548, 338.727 285.867 C 337.490 282.835, 337.467 282.827, 335.667 284.816 M 72.681 303.103 C 61.804 310.234, 59.586 312.508, 62.034 314.021 C 62.897 314.554, 64.778 313.696, 67.429 311.559 C 69.668 309.754, 74.763 306.150, 78.750 303.549 C 85.356 299.239, 87.940 295.991, 84.750 296.006 C 84.063 296.009, 78.632 299.203, 72.681 303.103 M 360 297.316 C 360 298.040, 363.488 301.032, 367.750 303.965 C 372.012 306.898, 376.963 310.670, 378.752 312.347 C 381.319 314.754, 382.262 315.138, 383.229 314.171 C 385.200 312.200, 383.185 310.087, 372.408 302.818 C 362.306 296.005, 360 294.983, 360 297.316 M 402.278 336.250 C 400.779 338.188, 399.836 340, 400.326 340 C 400.570 340, 401.507 338.875, 402.408 337.500 C 404.094 334.927, 404 334.024, 402.278 336.250 M 388.257 354.750 C 375.258 369.574, 356.109 386.804, 354.049 385.531 C 353.521 385.204, 352.327 386.098, 351.396 387.518 C 350.465 388.939, 349.101 389.869, 348.364 389.586 C 347.627 389.303, 347.131 389.560, 347.262 390.156 C 347.393 390.753, 346.302 391.974, 344.838 392.870 C 343.374 393.767, 340.106 395.760, 337.574 397.300 C 335.043 398.841, 332.528 399.827, 331.986 399.491 C 331.444 399.156, 331 399.340, 331 399.899 C 331 400.458, 328.975 402.102, 326.500 403.553 C 319.118 407.879, 321.400 407.496, 329.750 403.008 C 341.142 396.884, 355.212 387.265, 366.065 378.181 C 374.223 371.353, 379.136 366.324, 392.373 351.250 C 393.460 350.012, 394.113 349, 393.824 349 C 393.536 349, 391.031 351.587, 388.257 354.750 M 59.500 359 C 61.648 361.200, 63.631 363, 63.906 363 C 64.181 363, 62.648 361.200, 60.500 359 C 58.352 356.800, 56.369 355, 56.094 355 C 55.819 355, 57.352 356.800, 59.500 359 M 99.612 359.531 C 96.865 362.278, 100.636 366.377, 103.627 363.895 C 105.565 362.286, 105.331 360.248, 103.069 359.037 C 101.619 358.261, 100.759 358.384, 99.612 359.531 M 341 361.417 C 341 362.746, 341.563 364.030, 342.250 364.269 C 344.454 365.038, 346 363.853, 346 361.393 C 346 359.507, 345.470 359, 343.500 359 C 341.523 359, 341 359.506, 341 361.417 M 70.427 370.382 C 81.542 381.147, 99.398 394.490, 101.200 393.376 C 101.835 392.984, 102.029 393.143, 101.654 393.750 C 100.128 396.220, 132.591 412.613, 151.503 418.923 C 180.717 428.670, 218.791 433.365, 241 429.959 C 245.251 429.307, 244.150 429.218, 236.149 429.569 C 223.677 430.116, 203.859 429.038, 204.592 427.852 C 204.881 427.383, 203.741 427, 202.059 427 C 200.377 427, 199 427.363, 199 427.807 C 199 428.251, 195.820 428.183, 191.933 427.657 C 187.288 427.028, 185.318 426.399, 186.183 425.820 C 187.014 425.264, 186.506 425.170, 184.807 425.564 C 183.326 425.907, 181.571 425.853, 180.907 425.443 C 180.243 425.032, 178.139 424.557, 176.231 424.386 C 174.323 424.214, 171.777 423.429, 170.572 422.639 C 169.368 421.850, 167.059 421.390, 165.441 421.616 C 162.906 421.971, 162.776 421.885, 164.500 420.998 C 166.201 420.123, 166.077 420.052, 163.666 420.525 C 161.635 420.923, 161.040 420.744, 161.565 419.894 C 162.097 419.035, 161.546 418.897, 159.565 419.394 C 158.002 419.787, 157.073 419.692, 157.393 419.172 C 158.147 417.952, 146.329 413.764, 142.274 413.814 C 140.322 413.839, 139.138 413.390, 139.274 412.677 C 139.398 412.030, 138.667 411.643, 137.650 411.817 C 136.401 412.031, 136.045 411.736, 136.556 410.909 C 137.096 410.036, 136.693 409.847, 135.154 410.249 C 133.912 410.574, 132.678 410.270, 132.248 409.534 C 131.461 408.188, 121.594 402.897, 120.270 403.112 C 118.438 403.409, 116.920 402.939, 117.369 402.212 C 117.636 401.779, 115.573 400.141, 112.783 398.573 C 109.993 397.005, 108.027 396.234, 108.414 396.861 C 108.801 397.487, 108.754 397.986, 108.309 397.968 C 107.045 397.918, 103.974 395.359, 104.522 394.812 C 104.791 394.542, 104.082 393.479, 102.945 392.450 C 101.176 390.850, 100.745 390.790, 99.954 392.040 C 99.070 393.437, 98.539 392.611, 98.965 390.500 C 99.076 389.950, 98.845 389.822, 98.452 390.215 C 97.411 391.256, 94 389.176, 94 387.500 C 94 386.714, 93.046 385.560, 91.879 384.935 C 90.389 384.138, 89.961 384.127, 90.438 384.900 C 91.551 386.701, 89.444 386.148, 87.653 384.169 C 86.741 383.162, 86.334 381.965, 86.748 381.509 C 87.162 381.052, 86.918 381.015, 86.208 381.425 C 84.578 382.365, 73.709 373.280, 74.647 371.762 C 75.021 371.157, 74.842 370.980, 74.235 371.355 C 73.644 371.720, 72.538 371.452, 71.777 370.759 C 66.338 365.811, 65.452 365.564, 70.427 370.382 M 313 410.183 C 309.425 411.852, 301.775 414.946, 296 417.059 C 290.225 419.171, 286.040 420.922, 286.700 420.949 C 288.577 421.028, 305.700 414.594, 314 410.691 C 318.125 408.752, 321.050 407.161, 320.500 407.156 C 319.950 407.152, 316.575 408.514, 313 410.183 M 267.500 424.588 C 259.250 426.432, 251.150 428.006, 249.500 428.086 C 247.492 428.184, 247.129 428.393, 248.402 428.719 C 251.515 429.515, 282.992 423.198, 284.917 421.391 C 285.707 420.650, 282.453 421.247, 267.500 424.588" stroke="none" fill="#057343" fill-rule="evenodd"/></svg>